inDegrees=no
num_controls=7
num_derivatives=13
num_iterations=140
num_multipliers=7
num_parameters=0
num_slacks=7
num_states=26
objective=5.879822
objective_accelerations=0.786443
objective_balance=0.006433
objective_effort=0.527561
objective_height=4.535670
objective_ligament=0.023715
solver_duration=1170.845137
status=Solve_Succeeded
success=true
DataType=double
version=3
OpenSimVersion=4.4-2022-07-23-0e9fedc
endheader
time	/jointset/ground_pelvis/pelvis_tilt/value	/jointset/ground_pelvis/pelvis_tx/value	/jointset/ground_pelvis/pelvis_ty/value	/jointset/hip_r/hip_flexion_r/value	/jointset/hip_r/hip_adduction_r/value	/jointset/hip_r/hip_rotation_r/value	/jointset/back/lumbar_extension/value	/jointset/patellofemoral_r/patellar_flexion_r/value	/jointset/knee_r/knee_flexion_r/value	/jointset/knee_r/knee_adduction_r/value	/jointset/knee_r/knee_rotation_r/value	/jointset/ankle_r/ankle_angle_r/value	/jointset/subtalar_r/subtalar_angle_r/value	/jointset/ground_pelvis/pelvis_tilt/speed	/jointset/ground_pelvis/pelvis_tx/speed	/jointset/ground_pelvis/pelvis_ty/speed	/jointset/hip_r/hip_flexion_r/speed	/jointset/hip_r/hip_adduction_r/speed	/jointset/hip_r/hip_rotation_r/speed	/jointset/back/lumbar_extension/speed	/jointset/patellofemoral_r/patellar_flexion_r/speed	/jointset/knee_r/knee_flexion_r/speed	/jointset/knee_r/knee_adduction_r/speed	/jointset/knee_r/knee_rotation_r/speed	/jointset/ankle_r/ankle_angle_r/speed	/jointset/subtalar_r/subtalar_angle_r/speed	/forceset/tau_hip_flexion_r	/forceset/tau_hip_adduction_r	/forceset/tau_hip_rotation_r	/forceset/tau_knee_flexion_r	/forceset/tau_ankle_angle_r	/forceset/tau_subtalar_angle_r	/forceset/tau_lumbar_extension	lambda_cid13_p0	lambda_cid14_p0	lambda_cid14_p1	lambda_cid14_p2	lambda_cid14_p3	lambda_cid14_p4	lambda_cid14_p5	/jointset/ground_pelvis/pelvis_tilt/accel	/jointset/ground_pelvis/pelvis_tx/accel	/jointset/ground_pelvis/pelvis_ty/accel	/jointset/hip_r/hip_flexion_r/accel	/jointset/hip_r/hip_adduction_r/accel	/jointset/hip_r/hip_rotation_r/accel	/jointset/back/lumbar_extension/accel	/jointset/patellofemoral_r/patellar_flexion_r/accel	/jointset/knee_r/knee_flexion_r/accel	/jointset/knee_r/knee_adduction_r/accel	/jointset/knee_r/knee_rotation_r/accel	/jointset/ankle_r/ankle_angle_r/accel	/jointset/subtalar_r/subtalar_angle_r/accel	gamma_cid13_p0	gamma_cid14_p0	gamma_cid14_p1	gamma_cid14_p2	gamma_cid14_p3	gamma_cid14_p4	gamma_cid14_p5
0	0.002557840970632349	0.1266294198325958	0.9346263762651067	0.1934208783645156	-0.2124515471614754	-0.2284867115200751	-0.2903791543005566	0.2311793314021038	0.2311793314021609	0.09978441840238919	0.1509239309730132	0.08934340440958972	0.08319091087943173	0	0	0	0	0	0	0	0	0	0	0	0	0	0.1169081720775	-0.05209755698276947	0.003151325347121804	-0.2366740755255584	0.1047824371380339	-0.06044045245781925	-0.03873250624644457	-29.17084804090712	-11.15906483051476	-24.49848924317033	0.09603782013166709	11.27222160921671	-602.0167031685919	53.21237055291919	-2.407448391339744	-2.260684428397102	-1.02648523348287	11.80748475231301	-0.1195885591857806	2.003355207942714	-6.885705368480759	11.66953823246937	11.66953823246827	-2.698808247802926	0.8561755464428231	2.900462511635988	0.7146538522842055	2.670657126745132e-08	2.756869726862051e-08	-2.259599501099379e-07	1.887506644725551e-07	-3.547208809994953e-09	2.280337808874302e-07	-2.065071418182405e-07
0.01	0.002444782462132745	0.1265183640728465	0.934576529512522	0.1939947198069826	-0.2124556727070001	-0.2283874544220743	-0.29072388764505	0.2317509375932681	0.2317509375932228	0.0996485920491029	0.1509636592282486	0.08948611822593384	0.08322825040336106	-0.02252509191800285	-0.02204148647837588	-0.009936358267099368	0.1141465784699384	-0.0008083019364267243	0.01974512192959198	-0.06831191699724737	0.1137297975501772	0.1137297975501709	-0.02704801060091915	0.007880315233302911	0.02846309457764704	0.00746703879104349	0.1117601000469013	-0.05770530986014373	0.003405931872634479	-0.233052615217288	0.09994934330953806	-0.05379699372540355	-0.03378984633290597	-29.17827809506063	-12.38866728602066	-21.66127102113513	-0.5473421249788946	10.56142953904905	-604.1234182483092	58.80531930181276	-2.162052834564628	-2.150431640004751	-0.9722166793936946	11.12498679650891	-0.05893522517199971	1.944185150297842	-6.708722084150565	11.13597907180418	11.13597907180365	-2.690228824122638	0.7441967759572465	2.807287824359344	0.7625855842204948	3.745895989825191e-08	1.72307843401677e-09	-2.869822712409382e-07	2.351692248556781e-07	2.608841560309102e-08	3.99858074246733e-08	-2.640731916625612e-07
0.02	0.002109070386059874	0.1261919832718298	0.934428318066052	0.1956913755146574	-0.2124673781147312	-0.2280939272119002	-0.2917326976032731	0.2334420974710138	0.2334420974709832	0.09924579931908278	0.1510802380884653	0.08991107396672285	0.08334023165354441	-0.04453071353786506	-0.04306500825348367	-0.01967293877703337	0.2245628530267648	-0.001515972445113564	0.03885402245240077	-0.1328153227469762	0.2239107373208511	0.2239107373208361	-0.05339327551746161	0.01537012103393741	0.05644838489655603	0.01492834525041504	0.1066120280164018	-0.0633130627368766	0.003660538397758737	-0.229431154908823	0.09511624948130677	-0.04715353499212371	-0.02884718641956385	-29.19989960140211	-13.52755274808234	-18.82220452791804	-1.174984217712156	9.887241504246555	-604.7806293470264	64.12250040630768	-2.303554331713963	-2.057091487741245	-0.9865296820499062	11.06142396969024	-0.09946227363763292	1.876110926585919	-6.124003118978473	10.95976667656833	10.95976667656673	-2.558259110927898	0.7780736599088844	2.804901659890867	0.7135073859508071	4.82113485290525e-08	-2.412254040058697e-08	-3.480045923719385e-07	2.81587785238801e-07	5.5724040016177e-08	-1.480621660380836e-07	-3.216392415068818e-07
0.03	0.001555449496139268	0.1256597753845172	0.9341832670280582	0.1984754982923437	-0.2124860566488178	-0.2276127166914422	-0.2933695696217111	0.2362185328820416	0.2362185328818905	0.09858369286842109	0.1512702748670783	0.09061300957603773	0.08352617753375395	-0.06609693655290971	-0.06327337268047759	-0.02934152190930971	0.3317605467618617	-0.002229876241252614	0.05729804667404766	-0.1941900081830785	0.3308764845911919	0.3308764845912061	-0.07886515696436848	0.0225731485011131	0.08380822506795638	0.02221260330928768	0.1020449613455961	-0.05970561987288432	0.003808862285336663	-0.2262070755759437	0.09188127304682314	-0.04758112436744074	-0.02495080943137252	-29.23463059135564	-14.56443029075002	-19.15892725293469	-1.156173029262203	9.915496053081377	-604.782166729496	62.60203089182394	-2.068673501998807	-1.987218170575508	-0.9576909644580217	10.47376903173897	-0.05887193425432628	1.815100122847076	-6.08884034613722	10.48999002296849	10.48999002297386	-2.517251317017181	0.6818598074946455	2.681950081572677	0.728630681300796	4.833711146046696e-08	-3.842740997011034e-08	-3.410094945875344e-07	2.350192459863314e-07	6.677838119263253e-08	-2.723522165828736e-07	-2.801736176787963e-07
0.04	0.0007890629330486386	0.1249285820028609	0.9338413964916148	0.2023165633987424	-0.2125121777211978	-0.2269497555382705	-0.295609116312544	0.2400496280198158	0.2400496280197863	0.09767174787285576	0.1515304304238498	0.09158462856419822	0.08378351512764341	-0.08708384819237137	-0.08286210712221571	-0.03903683846696009	0.4359513187496856	-0.003004480103684482	0.07520414901139946	-0.2533502572279367	0.4348426826896057	0.4348426826896571	-0.1033609846292252	0.02939387666318964	0.1103850606717196	0.0292066879860438	0.09747789467517631	-0.05609817700831446	0.003957186173406947	-0.2229829962427859	0.08864629661262204	-0.04800871374197594	-0.02105443244315741	-29.28088739518855	-15.51919096095219	-19.49572252397057	-1.120844064581176	9.969358082458227	-603.4729524961829	60.82727342469263	-2.187692056599621	-1.933165490688023	-0.9918763671248113	10.4600396202353	-0.111602286895944	1.768526549726664	-5.681115840731039	10.3598568421826	10.35985684218258	-2.363048354518346	0.7016137988888153	2.648300746365763	0.6554727095285363	4.824376870735799e-08	-5.249432594653927e-08	-3.326119757945653e-07	1.86533446947561e-07	7.744960312709568e-08	-3.953276707788396e-07	-2.366661036718983e-07
0.05	-0.0001849237003137678	0.1240048936663524	0.9334021291622523	0.2071848154248036	-0.2125465644823501	-0.2261106921581189	-0.2984276838599412	0.2449053694270178	0.2449053694268985	0.09652024914993351	0.1518570375839831	0.09281827914394629	0.08410915142266966	-0.1076186116094642	-0.1017413172976395	-0.04884078986353603	0.5371533949253441	-0.003861591039387071	0.09248536612292502	-0.3099093454161989	0.5357732690630221	0.5357732690630541	-0.1268105034521642	0.03585365809935576	0.1362379972737594	0.03590838794156361	0.09213193819279204	-0.05472088553329828	0.004134640149276336	-0.2203083430197961	0.08574351375316366	-0.04631006829479432	-0.01650245025873475	-29.3368737070971	-16.2475539998594	-18.85317084299242	-1.260248546182157	9.521201474295934	-602.4938269155414	61.06887750405811	-1.972130181931118	-1.845146767158655	-0.978358954148194	9.868438639907085	-0.07107981371830528	1.689486072902907	-5.575219286581974	9.879800433202172	9.87980043319908	-2.316698390895229	0.607113849455019	2.537732447004351	0.6756624758484108	4.474592628640384e-08	-6.577759055235651e-08	-3.098180764953722e-07	1.010349374875361e-07	8.64267754529814e-08	-5.051009234173023e-07	-1.64390914997888e-07
0.06	-0.001361410307290793	0.1228964436308575	0.9328640814332805	0.2130487176175357	-0.2125891852162358	-0.2251025032506917	-0.3017982250849282	0.2507544448775832	0.2507544448775581	0.09513809629005619	0.1522460332651771	0.09430724755568308	0.08450143348470888	-0.1275838429336253	-0.11981444691949	-0.0587929183888633	0.6350813520480212	-0.004651274647549859	0.1090292544759283	-0.3637449927530823	0.6335094913676869	0.6335094913676986	-0.149491812063711	0.04187158087450055	0.1614486270710832	0.04253584138851468	0.08678598171151379	-0.05334359405816368	0.004312094125387739	-0.2176336897962287	0.08284073089393068	-0.04461142284740283	-0.01195046807358564	-29.40031892256223	-16.90270249112178	-18.20915668179636	-1.38691380317348	9.079437352492665	-600.3612731434652	61.1050102926411	-2.073785638015324	-1.771949379971464	-1.021511792875166	9.805215809638723	-0.09811682138769701	1.621060798021942	-5.136427670456528	9.720984028431911	9.720984028431772	-2.209406312240458	0.6132420666843514	2.519839385424734	0.6406234078158188	4.110473651101411e-08	-7.902785931099009e-08	-2.864180138064434e-07	1.397799811503744e-08	9.533261937429546e-08	-6.143182938849228e-07	-9.090445581157833e-08
0.07000000000000001	-0.002735356524338911	0.1216111996007647	0.9322254649664874	0.219876631714057	-0.2126398757618412	-0.2239323259391793	-0.3056932797709451	0.2575655244873717	0.2575655244872315	0.09353400310568917	0.1526930814709184	0.09604503553216057	0.08495897280594053	-0.1471106025791793	-0.1371069592240775	-0.06897321164670053	0.7299752069619212	-0.005480583370007214	0.124880884089629	-0.4148586032397811	0.7281870100404328	0.728187010040534	-0.1711862613208632	0.04745993004633255	0.1859926740762858	0.04895212624536872	0.08129462280207009	-0.05135796373012164	0.004485991849590028	-0.2155349675330419	0.08041698877175149	-0.04324209680527144	-0.007427286937277351	-29.46881183201429	-17.43814809424772	-17.70449932479787	-1.471609755486758	8.635905858741317	-598.3947710158321	60.8337839830179	-1.87788933079833	-1.688772994908916	-1.022837781507737	9.252532122360261	-0.07442599644073442	1.548426818486295	-5.037726559838074	9.263214528047191	9.263214528060688	-2.128421231696498	0.5199184442214093	2.404244398779281	0.6391046498701137	3.262882152485833e-08	-9.113813119247337e-08	-2.541453180597164e-07	-1.558351767064593e-07	1.010716052904234e-07	-7.084734652693251e-07	4.274178327484929e-08
